<svg width="19" height="19" viewBox="0 0 19 19" fill="none" xmlns="http://www.w3.org/2000/svg">
  <g clipPath="url(#clip0_162_674)">
    <path d="M10.1887 11.9304L8.17791 9.94334L8.20166 9.91959C9.57916 8.38376 10.5608 6.61834 11.1387 4.75001H13.4583V3.16668H7.91666V1.58334H6.33332V3.16668H0.791656V4.74209H9.63457C9.10416 6.27001 8.26499 7.71876 7.12499 8.98543C6.38874 8.17001 5.77916 7.27543 5.29624 6.33334H3.71291C4.29082 7.62376 5.08249 8.84293 6.07207 9.94334L2.04249 13.9175L3.16666 15.0417L7.12499 11.0833L9.58707 13.5454L10.1887 11.9304ZM14.6458 7.91668H13.0625L9.49999 17.4167H11.0833L11.97 15.0417H15.7304L16.625 17.4167H18.2083L14.6458 7.91668ZM12.5717 13.4583L13.8542 10.0304L15.1367 13.4583H12.5717Z" fill="#E70462"/>
  </g>
  <defs>
    <clipPath id="clip0_162_674">
      <rect width="19" height="19" fill="white"/>
    </clipPath>
  </defs>
</svg>

